<?xml version="1.0" encoding="utf-8"?>
<svg version="1.1" xmlns:xlink="http://www.w3.org/1999/xlink" width="240px" height="40px" xmlns="http://www.w3.org/2000/svg">
  <g transform="matrix(1 0 0 1 -449 -2156 )">
    <path d="M 449.5 2159  A 2.5 2.5 0 0 1 452 2156.5 L 686 2156.5  A 2.5 2.5 0 0 1 688.5 2159 L 688.5 2193  A 2.5 2.5 0 0 1 686 2195.5 L 452 2195.5  A 2.5 2.5 0 0 1 449.5 2193 L 449.5 2159  Z " fill-rule="nonzero" fill="#ffffff" stroke="none" />
    <path d="M 449.5 2159  A 2.5 2.5 0 0 1 452 2156.5 L 686 2156.5  A 2.5 2.5 0 0 1 688.5 2159 L 688.5 2193  A 2.5 2.5 0 0 1 686 2195.5 L 452 2195.5  A 2.5 2.5 0 0 1 449.5 2193 L 449.5 2159  Z " stroke-width="1" stroke="#0079fe" fill="none" />
  </g>
</svg>