<?xml version="1.0" encoding="utf-8"?>
<svg version="1.1" xmlns:xlink="http://www.w3.org/1999/xlink" width="246px" height="46px" xmlns="http://www.w3.org/2000/svg">
  <defs>
    <filter x="446px" y="2153px" width="246px" height="46px" filterUnits="userSpaceOnUse" id="filter198">
      <feOffset dx="0" dy="0" in="SourceAlpha" result="shadowOffsetInner" />
      <feGaussianBlur stdDeviation="1.5" in="shadowOffsetInner" result="shadowGaussian" />
      <feComposite in2="shadowGaussian" operator="atop" in="SourceAlpha" result="shadowComposite" />
      <feColorMatrix type="matrix" values="0 0 0 0 0  0 0 0 0 0.474509803921569  0 0 0 0 0.996078431372549  0 0 0 0.8 0  " in="shadowComposite" />
    </filter>
    <g id="widget199">
      <path d="M 449.5 2159  A 2.5 2.5 0 0 1 452 2156.5 L 686 2156.5  A 2.5 2.5 0 0 1 688.5 2159 L 688.5 2193  A 2.5 2.5 0 0 1 686 2195.5 L 452 2195.5  A 2.5 2.5 0 0 1 449.5 2193 L 449.5 2159  Z " fill-rule="nonzero" fill="#ffffff" stroke="none" />
      <path d="M 449.5 2159  A 2.5 2.5 0 0 1 452 2156.5 L 686 2156.5  A 2.5 2.5 0 0 1 688.5 2159 L 688.5 2193  A 2.5 2.5 0 0 1 686 2195.5 L 452 2195.5  A 2.5 2.5 0 0 1 449.5 2193 L 449.5 2159  Z " stroke-width="1" stroke="#0079fe" fill="none" />
    </g>
  </defs>
  <g transform="matrix(1 0 0 1 -446 -2153 )">
    <use xlink:href="#widget199" filter="url(#filter198)" />
    <use xlink:href="#widget199" />
  </g>
</svg>