<?xml version="1.0" encoding="utf-8"?>
<svg version="1.1" xmlns:xlink="http://www.w3.org/1999/xlink" width="23px" height="10px" preserveAspectRatio="xMinYMid meet" viewBox="45 905  23 8" xmlns="http://www.w3.org/2000/svg">
  <path d="M 201 116.5  L 55 116.5  A 5 5 0 0 0 50.5 121.5 L 50.5 904  A 5 5 0 0 0 55.5 909.5 L 63 909.5  " stroke-width="1" stroke="#ff0000" fill="none" />
  <path d="M 199 113.5  A 3 3 0 0 0 196 116.5 A 3 3 0 0 0 199 119.5 A 3 3 0 0 0 202 116.5 A 3 3 0 0 0 199 113.5 Z M 62 904  L 62 915  L 63 915  L 63 904  L 62 904  Z " fill-rule="nonzero" fill="#ff0000" stroke="none" />
</svg>