<?xml version="1.0" encoding="utf-8"?>
<svg version="1.1" xmlns:xlink="http://www.w3.org/1999/xlink" width="10px" height="5px" preserveAspectRatio="xMinYMid meet" viewBox="53 962  10 3" xmlns="http://www.w3.org/2000/svg">
  <path d="M 295 349.5  L 45 349.5  A 5 5 0 0 0 40.5 354.5 L 40.5 956  A 5 5 0 0 0 45.5 961.5 L 58 961.5  " stroke-width="1" stroke="#ff0000" fill="none" />
  <path d="M 293 346.5  A 3 3 0 0 0 290 349.5 A 3 3 0 0 0 293 352.5 A 3 3 0 0 0 296 349.5 A 3 3 0 0 0 293 346.5 Z M 57 956  L 57 967  L 58 967  L 58 956  L 57 956  Z " fill-rule="nonzero" fill="#ff0000" stroke="none" />
</svg>