<?xml version="1.0" encoding="utf-8"?>
<svg version="1.1" xmlns:xlink="http://www.w3.org/1999/xlink" width="115px" height="176px" xmlns="http://www.w3.org/2000/svg">
  <g transform="matrix(1 0 0 1 -174 -708 )">
    <path d="M 184.5 883.5  L 288.5 883.5  L 288.5 718.5  L 283.5 718.5  L 283.5 713.5  L 278.5 713.5  L 278.5 708.5  L 174.5 708.5  L 174.5 873.5  L 179.5 873.5  L 179.5 878.5  L 184.5 878.5  L 184.5 883.5  Z " fill-rule="nonzero" fill="#ffffff" stroke="none" />
    <path d="M 184.5 883.5  L 288.5 883.5  L 288.5 718.5  L 283.5 718.5  L 283.5 713.5  L 278.5 713.5  L 278.5 708.5  L 174.5 708.5  L 174.5 873.5  L 179.5 873.5  L 179.5 878.5  L 184.5 878.5  L 184.5 883.5  Z " stroke-width="1" stroke="#797979" fill="none" />
    <path d="M 283.5 719  L 283.5 878.5  L 185 878.5  M 278.5 714  L 278.5 873.5  L 180 873.5  " stroke-width="1" stroke="#797979" fill="none" />
  </g>
</svg>