<?xml version="1.0" encoding="utf-8"?>
<svg version="1.1" xmlns:xlink="http://www.w3.org/1999/xlink" width="60px" height="25px" xmlns="http://www.w3.org/2000/svg">
  <g transform="matrix(1 0 0 1 -1230 -15 )">
    <path d="M 1230.5 20  A 4.5 4.5 0 0 1 1235 15.5 L 1285 15.5  A 4.5 4.5 0 0 1 1289.5 20 L 1289.5 35  A 4.5 4.5 0 0 1 1285 39.5 L 1235 39.5  A 4.5 4.5 0 0 1 1230.5 35 L 1230.5 20  Z " fill-rule="nonzero" fill="#5daf34" stroke="none" />
    <path d="M 1230.5 20  A 4.5 4.5 0 0 1 1235 15.5 L 1285 15.5  A 4.5 4.5 0 0 1 1289.5 20 L 1289.5 35  A 4.5 4.5 0 0 1 1285 39.5 L 1235 39.5  A 4.5 4.5 0 0 1 1230.5 35 L 1230.5 20  Z " stroke-width="1" stroke="#5daf34" fill="none" />
  </g>
</svg>