<?xml version="1.0" encoding="utf-8"?>
<svg version="1.1" xmlns:xlink="http://www.w3.org/1999/xlink" width="355px" height="125px" xmlns="http://www.w3.org/2000/svg">
  <g transform="matrix(1 0 0 1 -12 -240 )">
    <path d="M 13 245  A 4 4 0 0 1 17 241 L 362 241  A 4 4 0 0 1 366 245 L 366 360  A 4 4 0 0 1 362 364 L 17 364  A 4 4 0 0 1 13 360 L 13 245  Z " fill-rule="nonzero" fill="#ffffff" stroke="none" />
    <path d="M 12.5 245  A 4.5 4.5 0 0 1 17 240.5 L 362 240.5  A 4.5 4.5 0 0 1 366.5 245 L 366.5 360  A 4.5 4.5 0 0 1 362 364.5 L 17 364.5  A 4.5 4.5 0 0 1 12.5 360 L 12.5 245  Z " stroke-width="1" stroke-dasharray="9,4" stroke="#0079fe" fill="none" stroke-opacity="0.8" stroke-dashoffset="0.5" />
  </g>
</svg>