<?xml version="1.0" encoding="utf-8"?>
<svg version="1.1" xmlns:xlink="http://www.w3.org/1999/xlink" width="24px" height="10px" preserveAspectRatio="xMinYMid meet" viewBox="25 914  24 8" xmlns="http://www.w3.org/2000/svg">
  <path d="M 264 417.5  L 35 417.5  A 5 5 0 0 0 30.5 422.5 L 30.5 913  A 5 5 0 0 0 35.5 918.5 L 44 918.5  " stroke-width="1" stroke="#ff0000" fill="none" />
  <path d="M 262 414.5  A 3 3 0 0 0 259 417.5 A 3 3 0 0 0 262 420.5 A 3 3 0 0 0 265 417.5 A 3 3 0 0 0 262 414.5 Z M 43 913  L 43 924  L 44 924  L 44 913  L 43 913  Z " fill-rule="nonzero" fill="#ff0000" stroke="none" />
</svg>